<svg height="512pt" viewBox="0 -1 512 512" width="512pt" xmlns="http://www.w3.org/2000/svg"><path d="m206.101562 406.972656c0 52.03125-38.566406 95.058594-88.667968 102.042969-4.707032.667969-9.503906 1.007813-14.382813 1.007813-56.914062 0-103.050781-46.136719-103.050781-103.050782 0-42.972656 26.308594-79.800781 63.695312-95.265625v-272.351562c0-10.828125 4.425782-20.660157 11.554688-27.796875 7.140625-7.128906 16.972656-11.558594 27.800781-11.558594 5.074219 0 9.921875.976562 14.382813 2.734375 14.585937 5.78125 24.964844 20.042969 24.964844 36.621094v272.351562c37.390624 15.464844 63.703124 52.292969 63.703124 95.265625zm0 0" fill="#97bffd"/><path d="m206.101562 406.972656c0 52.03125-38.566406 95.058594-88.667968 102.042969-50.101563-6.984375-88.667969-50.011719-88.667969-102.042969 0-42.972656 26.308594-79.800781 63.691406-95.265625v-272.351562c0-10.828125 4.429688-20.660157 11.558594-27.796875 3.800781-3.792969 8.363281-6.824219 13.417969-8.824219 14.585937 5.78125 24.964844 20.042969 24.964844 36.621094v272.351562c37.390624 15.464844 63.703124 52.292969 63.703124 95.265625zm0 0" fill="#b9d3fd"/><path d="m165.007812 406.972656c0 30.171875-21.667968 55.363282-50.257812 60.847656-3.789062.730469-7.703125 1.109376-11.699219 1.109376-34.167969 0-61.957031-27.789063-61.957031-61.957032 0-30.183594 21.695312-55.382812 50.316406-60.847656v-30.132812c0-5.753907 4.707032-10.457032 10.457032-10.457032h2.363281c5.753906 0 10.460937 4.703125 10.460937 10.457032v30.132812c.019532 0 .039063.007812.058594.007812 28.589844 5.5 50.257812 30.675782 50.257812 60.839844zm0 0" fill="#0956c6"/><g fill="#2476ed"><path d="m165.007812 406.972656c0 30.171875-21.667968 55.363282-50.257812 60.847656-28.589844-5.476562-50.265625-30.675781-50.265625-60.847656 0-30.164062 21.675781-55.351562 50.265625-60.839844 28.589844 5.5 50.257812 30.675782 50.257812 60.839844zm0 0"/><path d="m14.914062 77.964844h26.175782c4.257812 0 7.707031-3.449219 7.707031-7.707032 0-4.253906-3.449219-7.703124-7.707031-7.703124h-26.175782c-4.257812 0-7.707031 3.449218-7.707031 7.703124 0 4.257813 3.449219 7.707032 7.707031 7.707032zm0 0"/><path d="m41.089844 121.132812h-26.175782c-4.257812 0-7.707031 3.445313-7.707031 7.703126 0 4.257812 3.449219 7.703124 7.707031 7.703124h26.175782c4.257812 0 7.707031-3.445312 7.707031-7.703124 0-4.257813-3.449219-7.703126-7.707031-7.703126zm0 0"/><path d="m41.089844 179.710938h-26.175782c-4.257812 0-7.707031 3.449218-7.707031 7.703124 0 4.257813 3.449219 7.707032 7.707031 7.707032h26.175782c4.257812 0 7.707031-3.449219 7.707031-7.707032 0-4.253906-3.449219-7.703124-7.707031-7.703124zm0 0"/><path d="m41.089844 238.285156h-26.175782c-4.257812 0-7.707031 3.449219-7.707031 7.707032 0 4.253906 3.449219 7.703124 7.707031 7.703124h26.175782c4.257812 0 7.707031-3.449218 7.707031-7.703124 0-4.257813-3.449219-7.707032-7.707031-7.707032zm0 0"/></g><path d="m410.019531 123.605469c0 4.253906-3.453125 7.707031-7.707031 7.707031h-21.605469l7.738281 6.71875c5.390626 4.695312 2.003907 13.519531-5.066406 13.519531-5.03125 0-5.546875-3.125-26.144531-20.238281h-20.84375l7.292969 9.984375c5.003906 6.851563-.511719 16.425781-8.976563 15.523437l-12.226562-1.347656 10.394531 18.019532 26.445312 9.09375c8.175782 2.804687 6.164063 14.988281-2.507812 14.988281-2.1875 0-3.050781-.730469-12.195312-3.75l10.808593 18.707031c2.128907 3.6875.863281 8.394531-2.824219 10.519531-3.679687 2.128907-8.394531.882813-10.519531-2.8125l-10.808593-18.710937-1.949219 10.058594c-.722657 3.679687-3.945313 6.226562-7.5625 6.226562-4.859375 0-8.496094-4.429688-7.570313-9.175781l5.339844-27.449219-10.417969-18.050781-5 11.3125c-1.5625 3.542969-5.078125 5.835937-8.960937 5.835937.105468.039063-6.285156.234375-8.96875-5.847656l-4.582032-10.414062-.367187-.84375-10.398437 18.019531 5.34375 27.4375c.925781 4.757812-2.710938 9.175781-7.570313 9.175781-3.617187 0-6.84375-2.546875-7.5625-6.226562l-1.953125-10.058594-10.804688 18.710937c-1.417968 2.472657-4.019531 3.851563-6.679687 3.851563-5.875 0-9.636719-6.410156-6.667969-11.558594l10.808594-18.707031-9.6875 3.328125c-9.769531 3.371094-14.527344-11.300782-5.011719-14.566406l26.441407-9.09375 10.417968-18.058594-12.289062 1.335937c-8.453125.902344-13.980469-8.691406-8.957032-15.542969l7.273438-9.914062h-20.804688c-20.792968 17.289062-21.128906 20.238281-26.144531 20.238281-7.066406 0-10.457031-8.824219-5.0625-13.519531l7.734375-6.71875h-21.605468c-4.253907 0-7.703126-3.453125-7.703126-7.707031 0-4.25 3.449219-7.703125 7.703126-7.703125h21.605468l-7.734375-6.71875c-3.207031-2.792969-3.546875-7.664063-.75-10.871094 2.792969-3.214844 7.652344-3.550781 10.867188-.757812l21.089843 18.347656h20.847657l-7.296875-9.984375c-5-6.855469.503906-16.429688 8.980468-15.523438 8.804688.964844 11.382813 1.253907 12.03125 1.324219 0 0 .007813 0 .050782.011719.050781 0 .140625.007812.140625.007812l-10.394531-18.019531-26.441407-9.089844c-4.027343-1.375-6.164062-5.761718-4.777343-9.789062 1.375-4.027344 5.761718-6.164063 9.789062-4.777344l9.6875 3.328125-10.808594-18.707031c-2.125-3.6875-.863281-8.394532 2.828125-10.53125 3.6875-2.125 8.390625-.863282 10.519531 2.824218l10.804688 18.707032 1.953125-10.054688c.820313-4.171875 4.871094-6.90625 9.039063-6.082031 4.171874.808594 6.90625 4.847656 6.09375 9.027344l-5.34375 27.441406 10.417968 18.058594c.011719-.007813.011719-.019531.011719-.03125l4.980469-11.277344c3.441406-7.777344 14.507812-7.789063 17.9375.007813l4.953125 11.261718 10.394531-18.019531-5.339844-27.441406c-.8125-4.179688 1.910156-8.21875 6.089844-9.027344 4.183594-.824219 8.21875 1.910156 9.042969 6.082031l1.949219 10.054688 10.808593-18.707032c2.125-3.6875 6.832031-4.949218 10.519531-2.824218 3.6875 2.136718 4.953126 6.84375 2.824219 10.53125l-10.808593 18.707031 9.691406-3.328125c4.023437-1.386719 8.402344.75 9.789062 4.777344 1.386719 4.027344-.75 8.414062-4.777344 9.789062l-26.445312 9.089844-10.414062 18.0625 12.285156-1.335938c8.464844-.902343 13.980468 8.691407 8.949218 15.542969l-7.265624 9.914063h20.804687l21.089844-18.347656c3.207031-2.792969 8.074219-2.457032 10.871093.757812 2.792969 3.207031 2.453126 8.078125-.75 10.871094l-7.738281 6.71875h21.605469c4.253906 0 7.707031 3.453125 7.707031 7.703125zm0 0" fill="#97bffd"/><path d="m512 363.011719c0 4.253906-3.453125 7.707031-7.703125 7.707031h-32.257813l13.601563 11.824219c5.390625 4.695312 2.011719 13.519531-5.054687 13.519531-5.085938 0-4.859376-2.558594-32.023438-25.34375h-30.65625l11.394531 15.59375c5.269531 7.222656-.542969 17.332031-9.472656 16.355469l-19.117187-2.097657 15.308593 26.515626 33.796875 11.621093c8.175782 2.8125 6.164063 14.996094-2.507812 14.996094-2.25 0-2.105469-.429687-19.546875-6.285156l16.117187 27.933593c2.980469 5.15625-.792968 11.554688-6.65625 11.554688-2.671875 0-5.261718-1.386719-6.6875-3.851562l-16.121094-27.933594-3.449218 17.691406c-.710938 3.679688-3.9375 6.234375-7.550782 6.234375-4.859374 0-8.496093-4.425781-7.574218-9.183594l6.832031-35.082031-15.328125-26.546875-7.804688 17.660156c-1.65625 3.738281-5.363281 6.15625-9.453124 6.15625.101562.027344-6.625.246094-9.449219-6.164062l-6.535157-14.847657-1.210937-2.761718-15.308594 26.503906 6.832031 35.082031c.8125 4.183594-1.910156 8.230469-6.09375 9.042969-4.128906.808594-8.207031-1.871094-9.027343-6.09375l-3.441407-17.691406-16.128906 27.933594c-1.429687 2.464843-4.019531 3.851562-6.679687 3.851562-5.886719 0-9.644531-6.410156-6.667969-11.554688l16.128906-27.933593-17.050781 5.867187c-.824219.277344-1.675781.417969-2.507813.417969-8.671874 0-10.675781-12.183594-2.496093-14.996094l33.789062-11.621093 15.335938-26.554688-19.199219 2.074219c-8.9375.945312-14.722656-9.171875-9.429688-16.386719l11.371094-15.5h-30.613281c-27.296875 22.878906-26.96875 25.34375-32.023437 25.34375-7.066407 0-10.457032-8.824219-5.0625-13.519531l13.601562-11.824219h-32.25c-4.261719 0-7.703125-3.453125-7.703125-7.707031 0-4.261719 3.441406-7.703125 7.703125-7.703125h32.25l-13.601562-11.835938c-3.207032-2.792968-3.546876-7.652344-.75-10.867187 2.78125-3.207031 7.652343-3.546875 10.867187-.761719l26.96875 23.464844h30.644531l-11.382812-15.59375c-5.292969-7.242188.5625-17.332032 9.460937-16.367188 21.195313 2.328125 18.90625 2.074219 19.117188 2.097656l-15.304688-26.507812-33.789062-11.628906c-4.027344-1.375-6.164063-5.761719-4.789063-9.789063 1.386719-4.015625 5.773438-6.164062 9.792969-4.777343l17.050781 5.867187-16.128906-27.933594c-2.125-3.6875-.863281-8.402343 2.816406-10.53125 3.6875-2.125 8.402344-.863281 10.53125 2.828125l16.128906 27.929688 3.441407-17.699219c.808593-4.171875 4.859375-6.902344 9.027343-6.082031 4.183594.8125 6.90625 4.847656 6.09375 9.03125l-6.832031 35.082031 15.335938 26.554687.054687-.101562 7.746094-17.554688c1.652344-3.75 5.359375-6.164062 9.449219-6.164062-.101563-.03125 6.636719-.238281 9.453125 6.171875l7.746094 17.597656 15.304687-26.503906-6.832031-35.082031c-.808594-4.183594 1.910156-8.21875 6.09375-9.03125 4.179687-.820313 8.21875 1.910156 9.03125 6.082031l3.449218 17.699219 16.121094-27.929688c2.136719-3.691406 6.839844-4.953125 10.527344-2.828125 3.6875 2.128907 4.953125 6.84375 2.816406 10.53125l-16.117187 27.933594 17.042969-5.867187c4.027343-1.386719 8.402343.761718 9.789062 4.777343 1.386719 4.027344-.75 8.414063-4.777344 9.789063l-33.796875 11.628906-15.328125 26.558594 19.1875-2.074219c8.929688-.957031 14.734375 9.164063 9.441406 16.375l-11.371093 15.511719h30.613281l26.96875-23.464844c3.203125-2.785156 8.074219-2.445312 10.867188.761719 2.796874 3.214843 2.457031 8.074219-.757813 10.867187l-13.601563 11.835938h32.257813c4.25 0 7.703125 3.441406 7.703125 7.703125zm0 0" fill="#97bffd"/><path d="m410.019531 123.605469c0 4.253906-3.453125 7.707031-7.707031 7.707031h-21.605469l7.738281 6.71875c5.390626 4.695312 2.003907 13.519531-5.066406 13.519531-5.03125 0-5.546875-3.125-26.144531-20.238281h-20.84375l7.292969 9.984375c5.003906 6.851563-.511719 16.425781-8.976563 15.523437l-12.226562-1.347656 10.394531 18.019532 26.445312 9.09375c8.175782 2.804687 6.164063 14.988281-2.507812 14.988281-2.1875 0-3.050781-.730469-12.195312-3.75l10.808593 18.707031c2.128907 3.6875.863281 8.394531-2.824219 10.519531-3.679687 2.128907-8.394531.882813-10.519531-2.8125l-10.808593-18.710937-1.949219 10.058594c-.722657 3.679687-3.945313 6.226562-7.5625 6.226562-4.859375 0-8.496094-4.429688-7.570313-9.175781l5.339844-27.449219-10.417969-18.050781-5 11.3125c-1.5625 3.542969-5.078125 5.835937-8.960937 5.835937.105468.039063-6.285156.234375-8.96875-5.847656l-4.582032-10.414062c-4.097656-12.769532-6.304687-26.382813-6.304687-40.519532 0-13.726562 2.085937-26.976562 5.957031-39.429687.011719-.007813.011719-.019531.011719-.03125l4.980469-11.277344c3.441406-7.777344 14.507812-7.789063 17.9375.007813l4.953125 11.261718 10.394531-18.019531-5.339844-27.441406c-.8125-4.179688 1.910156-8.21875 6.089844-9.027344 4.183594-.824219 8.21875 1.910156 9.042969 6.082031l1.949219 10.054688 10.808593-18.707032c2.125-3.6875 6.832031-4.949218 10.519531-2.824218 3.6875 2.136718 4.953126 6.84375 2.824219 10.53125l-10.808593 18.707031 9.691406-3.328125c4.023437-1.386719 8.402344.75 9.789062 4.777344 1.386719 4.027344-.75 8.414062-4.777344 9.789062l-26.445312 9.089844-10.414062 18.0625 12.285156-1.335938c8.464844-.902343 13.980468 8.691407 8.949218 15.542969l-7.265624 9.914063h20.804687l21.089844-18.347656c3.207031-2.792969 8.074219-2.457032 10.871093.757812 2.792969 3.207031 2.453126 8.078125-.75 10.871094l-7.738281 6.71875h21.605469c4.253906 0 7.707031 3.453125 7.707031 7.703125zm0 0" fill="#b9d3fd"/><path d="m512 363.011719c0 4.253906-3.453125 7.707031-7.703125 7.707031h-32.257813l13.601563 11.824219c5.390625 4.695312 2.011719 13.519531-5.054687 13.519531-5.085938 0-4.859376-2.558594-32.023438-25.34375h-30.65625l11.394531 15.59375c5.269531 7.222656-.542969 17.332031-9.472656 16.355469l-19.117187-2.097657 15.308593 26.515626 33.796875 11.621093c8.175782 2.8125 6.164063 14.996094-2.507812 14.996094-2.25 0-2.105469-.429687-19.546875-6.285156l16.117187 27.933593c2.980469 5.15625-.792968 11.554688-6.65625 11.554688-2.671875 0-5.261718-1.386719-6.6875-3.851562l-16.121094-27.933594-3.449218 17.691406c-.710938 3.679688-3.9375 6.234375-7.550782 6.234375-4.859374 0-8.496093-4.425781-7.574218-9.183594l6.832031-35.082031-15.328125-26.546875-7.804688 17.660156c-1.65625 3.738281-5.363281 6.15625-9.453124 6.15625.101562.027344-6.625.246094-9.449219-6.164062l-6.535157-14.847657c-4.734374-15.214843-7.304687-31.566406-7.304687-48.582031 0-15.605469 2.15625-30.644531 6.175781-44.769531l7.746094-17.554688c1.652344-3.75 5.359375-6.164062 9.449219-6.164062-.101563-.03125 6.636719-.238281 9.453125 6.171875l7.746094 17.597656 15.304687-26.503906-6.832031-35.082031c-.808594-4.183594 1.910156-8.21875 6.09375-9.03125 4.179687-.820313 8.21875 1.910156 9.03125 6.082031l3.449218 17.699219 16.121094-27.929688c2.136719-3.691406 6.839844-4.953125 10.527344-2.828125 3.6875 2.128907 4.953125 6.84375 2.816406 10.53125l-16.117187 27.933594 17.042969-5.867187c4.027343-1.386719 8.402343.761718 9.789062 4.777343 1.386719 4.027344-.75 8.414063-4.777344 9.789063l-33.796875 11.628906-15.328125 26.558594 19.1875-2.074219c8.929688-.957031 14.734375 9.164063 9.441406 16.375l-11.371093 15.511719h30.613281l26.96875-23.464844c3.203125-2.785156 8.074219-2.445312 10.867188.761719 2.796874 3.214843 2.457031 8.074219-.757813 10.867187l-13.601563 11.835938h32.257813c4.25 0 7.703125 3.441406 7.703125 7.703125zm0 0" fill="#b9d3fd"/></svg>