<svg height="512pt" viewBox="-3 0 512 512" width="512pt" xmlns="http://www.w3.org/2000/svg"><path d="m335.683594 512c-59.269532 0-107.492188-48.21875-107.492188-107.488281 0-33.347657 15.335938-64.460938 41.40625-84.777344v-253.648437c0-36.441407 29.644532-66.085938 66.085938-66.085938 36.4375 0 66.085937 29.644531 66.085937 66.085938v253.648437c26.066407 20.316406 41.402344 51.429687 41.402344 84.777344 0 59.269531-48.21875 107.488281-107.488281 107.488281zm0 0" fill="#dce1eb"/><path d="m350.746094 353.621094v-84.074219c0-8.316406-6.746094-15.0625-15.0625-15.0625-8.320313 0-15.0625 6.746094-15.0625 15.0625v84.074219c-22.21875 6.523437-38.492188 27.082031-38.492188 51.382812 0 29.53125 24.023438 53.554688 53.554688 53.554688 29.527344 0 53.554687-24.023438 53.554687-53.554688 0-24.300781-16.277343-44.855468-38.492187-51.382812zm0 0" fill="#80dbff"/><g fill="#506ea0"><path d="m424.082031 53.644531h82.839844v30.121094h-82.839844zm0 0"/><path d="m424.082031 120.890625h56.480469v30.125h-56.480469zm0 0"/><path d="m424.082031 188.140625h82.839844v30.121094h-82.839844zm0 0"/><path d="m424.082031 255.386719h56.480469v30.125h-56.480469zm0 0"/></g><path d="m243.863281 199.824219-10.96875-28.054688-40.453125 15.816407-26.320312-15.195313c.25-1.8125.390625-3.660156.390625-5.542969 0-1.878906-.140625-3.730468-.390625-5.542968l26.320312-15.195313 40.453125 15.820313 10.96875-28.058594-18.019531-7.046875 26.949219-15.558594-15.058594-26.089844-26.953125 15.5625 2.90625-19.128906-29.78125-4.527344-6.527344 42.941407-26.339844 15.207031c-2.902343-2.269531-6.121093-4.144531-9.578124-5.550781v-30.394532l33.921874-27.125-18.8125-23.527344-15.109374 12.082032v-31.121094h-30.125v31.121094l-15.113282-12.082032-18.8125 23.527344 33.925782 27.125v30.394532c-3.460938 1.40625-6.679688 3.28125-9.582032 5.550781l-26.335937-15.207031-6.527344-42.941407-29.78125 4.527344 2.90625 19.128906-26.953125-15.5625-15.0625 26.089844 26.953125 15.558594-18.019531 7.046875 10.96875 28.058594 40.453125-15.820313 26.320312 15.195313c-.253906 1.8125-.394531 3.664062-.394531 5.542968 0 1.882813.140625 3.730469.394531 5.542969l-26.320312 15.195313-40.453125-15.816407-10.96875 28.054688 18.019531 7.046875-26.953125 15.5625 15.0625 26.085937 26.953125-15.5625-2.910156 19.132813 29.78125 4.527344 6.53125-42.941407 26.335937-15.207031c2.902344 2.265625 6.121094 4.144531 9.582032 5.550781v30.390625l-33.925782 27.125 18.8125 23.53125 15.109375-12.085937v31.121093h30.125v-31.121093l15.113281 12.082031 18.8125-23.527344-33.925781-27.125v-30.390625c3.460938-1.40625 6.679688-3.285156 9.582031-5.550781l26.335938 15.207031 6.53125 42.941407 29.78125-4.53125-2.90625-19.128907 26.949219 15.5625 15.0625-26.085937-26.953125-15.5625zm-107.476562-32.976563c0 5.511719-4.480469 9.992188-9.988281 9.992188-5.511719 0-9.992188-4.480469-9.992188-9.992188 0-5.507812 4.480469-9.988281 9.992188-9.988281 5.507812 0 9.988281 4.480469 9.988281 9.988281zm0 0" fill="#b5efff"/><path d="m401.769531 319.734375v-253.648437c0-36.441407-29.648437-66.085938-66.085937-66.085938v512c59.269531 0 107.488281-48.21875 107.488281-107.488281 0-33.347657-15.335937-64.460938-41.402344-84.777344zm0 0" fill="#afb4c8"/><path d="m350.746094 353.621094v-84.074219c0-8.316406-6.746094-15.0625-15.0625-15.0625v204.074219c29.527344 0 53.554687-24.023438 53.554687-53.554688 0-24.300781-16.277343-44.855468-38.492187-51.382812zm0 0" fill="#14bff4"/><path d="m243.863281 199.824219-10.96875-28.054688-40.453125 15.816407-26.320312-15.195313c.25-1.8125.390625-3.660156.390625-5.542969 0-1.878906-.140625-3.730468-.390625-5.542968l26.320312-15.195313 40.453125 15.820313 10.96875-28.058594-18.019531-7.046875 26.949219-15.558594-15.058594-26.089844-26.953125 15.5625 2.90625-19.128906-29.78125-4.527344-6.527344 42.941407-26.339844 15.207031c-2.902343-2.269531-6.121093-4.144531-9.578124-5.550781v-30.394532l33.921874-27.125-18.8125-23.527344-15.109374 12.082032v-31.121094h-15.0625v127.265625c5.507812 0 9.988281 4.480469 9.988281 9.988281 0 5.511719-4.480469 9.992188-9.988281 9.992188v127.265625h15.0625v-31.125l15.109374 12.085937 18.8125-23.53125-33.921874-27.121094v-30.394531c3.457031-1.40625 6.675781-3.285156 9.578124-5.550781l26.339844 15.207031 6.527344 42.941407 29.785156-4.527344-2.910156-19.128906 26.953125 15.558593 15.0625-26.085937-26.953125-15.5625zm0 0" fill="#80dbff"/></svg>